<?xml version="1.0" encoding="UTF-8" standalone="no"?>
<svg
   xmlns:dc="http://purl.org/dc/elements/1.1/"
   xmlns:cc="http://creativecommons.org/ns#"
   xmlns:rdf="http://www.w3.org/1999/02/22-rdf-syntax-ns#"
   xmlns:svg="http://www.w3.org/2000/svg"
   xmlns="http://www.w3.org/2000/svg"
   xmlns:sodipodi="http://sodipodi.sourceforge.net/DTD/sodipodi-0.dtd"
   xmlns:inkscape="http://www.inkscape.org/namespaces/inkscape"
   width="16"
   height="16"
   fill="currentColor"
   class="bi bi-list"
   viewBox="0 0 16 16"
   version="1.1"
   id="svg4"
   sodipodi:docname="list.svg"
   inkscape:version="1.0.2-2 (e86c870879, 2021-01-15)">
  <metadata
     id="metadata6">
    <rdf:RDF>
      <cc:Work
         rdf:about="">
        <dc:format>image/svg+xml</dc:format>
        <dc:type
           rdf:resource="http://purl.org/dc/dcmitype/StillImage" />
        <dc:title></dc:title>
      </cc:Work>
    </rdf:RDF>
  </metadata>
  <defs
     id="defs8" />
  <sodipodi:namedview
     id="namedview6"
     pagecolor="#505050"
     bordercolor="#ffffff"
     borderopacity="1"
     inkscape:pageshadow="0"
     inkscape:pageopacity="0"
     inkscape:pagecheckerboard="1"
     showgrid="false"
     inkscape:zoom="69.034723"
     inkscape:cx="7.6165998"
     inkscape:cy="7.9849208"
     inkscape:window-width="1366"
     inkscape:window-height="715"
     inkscape:window-x="-8"
     inkscape:window-y="-8"
     inkscape:window-maximized="1"
     inkscape:current-layer="svg4"
     inkscape:document-rotation="0" />
  <path
     fill-rule="evenodd"
     d="m 8.5738214,12 c 0,-0.276142 0.2238576,-0.5 0.5,-0.5 H 13 c 0.666666,0 0.666666,1 0,1 H 9.0738214 c -0.2761424,0 -0.5,-0.223858 -0.5,-0.5 z M 2.7666625,8 c 0,-0.2761424 0.2238576,-0.5 0.5,-0.5 H 13 c 0.666666,0 0.666666,1 0,1 H 3.2666625 c -0.2761424,0 -0.5,-0.2238576 -0.5,-0.5 z M 5.2815168,4 c 0,-0.2761424 0.2238576,-0.5 0.5,-0.5 H 13 c 0.666666,0 0.666666,1 0,1 H 5.7815168 c -0.2761424,0 -0.5,-0.2238576 -0.5,-0.5 z"
     id="path2"
     sodipodi:nodetypes="ssssssssssssssssss"
     style="fill:#00353b;fill-opacity:1;stroke:#00353b;stroke-width:0.4;stroke-miterlimit:4;stroke-dasharray:none;stroke-opacity:1" />
</svg>
