<?xml version="1.0" encoding="iso-8859-1"?>
<!-- Generator: Adobe Illustrator 16.0.0, SVG Export Plug-In . SVG Version: 6.00 Build 0)  -->
<!DOCTYPE svg PUBLIC "-//W3C//DTD SVG 1.1//EN" "http://www.w3.org/Graphics/SVG/1.1/DTD/svg11.dtd">
<svg version="1.1" id="Capa_1" xmlns="http://www.w3.org/2000/svg" xmlns:xlink="http://www.w3.org/1999/xlink" x="0px" y="0px"
	 width="886px" height="886px" viewBox="0 0 886 886" style="enable-background:new 0 0 886 886;" xml:space="preserve">
<g>
	<path d="M194,35c-11,0-20,9-20,20v459c0,11,9,20,20,20h61c11,0,20-9,20-20V55c0-11-9-20-20-20H194z"/>
	<path d="M340,35c-11,0-20,9-20,20v459c0,11,9,20,20,20h61c11,0,20-9,20-20V55c0-11-9-20-20-20H340z"/>
	<path d="M567,55c0-11-9-20-20-20h-61c-11,0-20,8.9-20,20v608h101V55z"/>
	<path d="M713,514V55c0-11-9-20-20-20h-61c-11,0-20,9-20,20v459c0,11,9,20,20,20h61C704,534,713,525,713,514z"/>
	<path d="M459.8,702c-11,0-20,9.1-20,20.2V776.6c0,3,0.7,5.9,1.9,8.601l42.5,89.399c3.3,7,10.3,11.4,18.1,11.4h14.2H531
		c7.7,0,14.8-4.5,18.1-11.5l42.101-89.7c1.3-2.7,1.8-5.6,1.8-8.5v-54c0-11-8.8-20.3-19.8-20.3H567H466H459.8L459.8,702z"/>
	<path d="M15,116v169v169c0,64.1,52,116,116,116V285V0C67,0,15,51.9,15,116z"/>
	<path d="M755,0v285v285c65,0,116-51.9,116-116V285V116C871,51.9,820,0,755,0z"/>
</g>
<g>
</g>
<g>
</g>
<g>
</g>
<g>
</g>
<g>
</g>
<g>
</g>
<g>
</g>
<g>
</g>
<g>
</g>
<g>
</g>
<g>
</g>
<g>
</g>
<g>
</g>
<g>
</g>
<g>
</g>
</svg>
